<svg xmlns="http://www.w3.org/2000/svg" width="224.88" viewBox="0 0 224.88 225" height="225" version="1.0"><defs><clipPath id="a"><path d="M 0 0.0585938 L 224.761719 0.0585938 L 224.761719 224.9375 L 0 224.9375 Z M 0 0.0585938"/></clipPath><clipPath id="b"><path d="M 0 34 L 224.761719 34 L 224.761719 212.898438 L 0 212.898438 Z M 0 34"/></clipPath><clipPath id="c"><path d="M 139 12.007812 L 224.761719 12.007812 L 224.761719 137 L 139 137 Z M 139 12.007812"/></clipPath></defs><g clip-path="url(#a)" fill="none"><path d="M 0 0.0585938 L 224.878906 0.0585938 L 224.878906 232.4375 L 0 232.4375 Z M 0 0.0585938"/><path d="M 0 0.0585938 L 224.878906 0.0585938 L 224.878906 224.941406 L 0 224.941406 Z M 0 0.0585938"/><path d="M 0 0.0585938 L 224.878906 0.0585938 L 224.878906 224.941406 L 0 224.941406 Z M 0 0.0585938"/></g><path fill="#A6A6A6" d="M 208.960938 33.40625 L 155.300781 33.40625 L 155.300781 46.914062 L 208.960938 46.914062 L 208.960938 33.40625"/><path fill="#A6A6A6" d="M 178.1875 54.792969 L 155.300781 54.792969 L 155.300781 68.304688 L 178.1875 68.304688 L 178.1875 54.792969"/><path fill="#A6A6A6" d="M 186.074219 68.304688 L 208.960938 68.304688 L 208.960938 54.792969 L 186.074219 54.792969 L 186.074219 68.304688"/><path fill="#A6A6A6" d="M 208.960938 76.183594 L 155.300781 76.183594 L 155.300781 84.0625 L 208.960938 84.0625 L 208.960938 76.183594"/><path fill="#A6A6A6" d="M 208.960938 91.945312 L 155.300781 91.945312 L 155.300781 99.824219 L 208.960938 99.824219 L 208.960938 91.945312"/><path fill="#A6A6A6" d="M 208.960938 107.703125 L 155.300781 107.703125 L 155.300781 115.582031 L 208.960938 115.582031 L 208.960938 107.703125"/><g clip-path="url(#b)"><path fill="#A6A6A6" d="M 211.210938 144.851562 L 211.210938 157.335938 L 13.667969 157.335938 L 13.667969 48.167969 L 131.648438 48.167969 L 131.648438 34.660156 L 6.90625 34.660156 C 3.175781 34.660156 0.152344 37.6875 0.152344 41.414062 L 0.152344 177.597656 C 0.152344 181.328125 3.175781 184.351562 6.90625 184.351562 L 89.949219 184.351562 L 89.949219 199.382812 L 71.332031 199.382812 C 67.597656 199.382812 64.574219 202.40625 64.574219 206.136719 C 64.574219 209.863281 67.597656 212.890625 71.332031 212.890625 L 153.550781 212.890625 C 157.28125 212.890625 160.308594 209.863281 160.308594 206.136719 C 160.308594 202.40625 157.28125 199.382812 153.550781 199.382812 L 134.929688 199.382812 L 134.929688 184.351562 L 217.972656 184.351562 C 221.703125 184.351562 224.726562 181.328125 224.726562 177.597656 L 224.726562 144.175781 C 223.496094 144.613281 222.167969 144.851562 220.785156 144.851562 L 211.210938 144.851562"/></g><path fill="#A6A6A6" d="M 123.765625 133.140625 L 29.433594 133.140625 L 29.433594 77.992188 L 123.765625 77.992188 Z M 38.78125 70.226562 C 38.78125 69.316406 39.523438 68.574219 40.433594 68.574219 L 71.585938 68.574219 C 72.5 68.574219 73.238281 69.316406 73.238281 70.226562 L 73.238281 72.25 C 73.238281 73.160156 72.5 73.902344 71.585938 73.902344 L 40.433594 73.902344 C 39.523438 73.902344 38.78125 73.160156 38.78125 72.25 Z M 91.414062 68.574219 C 92.886719 68.574219 94.078125 69.769531 94.078125 71.238281 C 94.078125 72.707031 92.886719 73.902344 91.414062 73.902344 C 89.945312 73.902344 88.75 72.707031 88.75 71.238281 C 88.75 69.769531 89.945312 68.574219 91.414062 68.574219 Z M 101.585938 68.574219 C 103.054688 68.574219 104.25 69.769531 104.25 71.238281 C 104.25 72.707031 103.054688 73.902344 101.585938 73.902344 C 100.113281 73.902344 98.917969 72.707031 98.917969 71.238281 C 98.917969 69.769531 100.113281 68.574219 101.585938 68.574219 Z M 111.753906 68.574219 C 113.222656 68.574219 114.417969 69.769531 114.417969 71.238281 C 114.417969 72.707031 113.222656 73.902344 111.753906 73.902344 C 110.285156 73.902344 109.089844 72.707031 109.089844 71.238281 C 109.089844 69.769531 110.285156 68.574219 111.753906 68.574219 Z M 25.496094 64.484375 C 23.316406 64.484375 21.550781 66.25 21.550781 68.425781 L 21.550781 137.078125 C 21.550781 139.257812 23.316406 141.023438 25.496094 141.023438 L 127.703125 141.023438 C 129.882812 141.023438 131.648438 139.257812 131.648438 137.078125 L 131.648438 68.425781 C 131.648438 66.25 129.882812 64.484375 127.703125 64.484375 L 25.496094 64.484375"/><path fill="#A6A6A6" d="M 115.882812 109.507812 L 37.320312 109.507812 L 37.320312 125.261719 L 115.882812 125.261719 L 115.882812 109.507812"/><path fill="#A6A6A6" d="M 72.660156 85.875 L 37.320312 85.875 L 37.320312 101.625 L 72.660156 101.625 L 72.660156 85.875"/><path fill="#A6A6A6" d="M 115.882812 85.875 L 80.539062 85.875 L 80.539062 101.625 L 115.882812 101.625 L 115.882812 85.875"/><g clip-path="url(#c)"><path fill="#A6A6A6" d="M 216.84375 123.464844 L 147.417969 123.464844 L 147.417969 25.523438 L 216.84375 25.523438 Z M 186.082031 131.757812 C 186.082031 133.082031 184.996094 134.167969 183.671875 134.167969 L 180.589844 134.167969 C 179.265625 134.167969 178.183594 133.082031 178.183594 131.757812 L 178.183594 128.679688 C 178.183594 127.355469 179.265625 126.269531 180.589844 126.269531 L 183.671875 126.269531 C 184.996094 126.269531 186.082031 127.355469 186.082031 128.679688 Z M 173.347656 17.476562 C 173.347656 17.0625 173.691406 16.71875 174.109375 16.71875 L 190.152344 16.71875 C 190.570312 16.71875 190.914062 17.0625 190.914062 17.476562 L 190.914062 20.0625 C 190.914062 20.480469 190.570312 20.824219 190.152344 20.824219 L 174.109375 20.824219 C 173.691406 20.824219 173.347656 20.480469 173.347656 20.0625 Z M 220.785156 12.015625 L 143.476562 12.015625 C 141.300781 12.015625 139.535156 13.78125 139.535156 15.960938 L 139.535156 133.03125 C 139.535156 135.210938 141.300781 136.972656 143.476562 136.972656 L 220.785156 136.972656 C 222.964844 136.972656 224.726562 135.210938 224.726562 133.03125 L 224.726562 15.960938 C 224.726562 13.78125 222.964844 12.015625 220.785156 12.015625"/></g></svg>